<?xml version="1.0" encoding="UTF-8" standalone="no"?>
<svg
   xmlns:dc="http://purl.org/dc/elements/1.1/"
   xmlns:cc="http://creativecommons.org/ns#"
   xmlns:rdf="http://www.w3.org/1999/02/22-rdf-syntax-ns#"
   xmlns:svg="http://www.w3.org/2000/svg"
   xmlns="http://www.w3.org/2000/svg"
   viewBox="0 0 384 384"
   height="384"
   width="384"
   xml:space="preserve"
   id="svg2"
   version="1.1"><metadata
     id="metadata8"><rdf:RDF><cc:Work
         rdf:about=""><dc:format>image/svg+xml</dc:format><dc:type
           rdf:resource="http://purl.org/dc/dcmitype/StillImage" /></cc:Work></rdf:RDF></metadata><defs
     id="defs6" /><g
     transform="matrix(1.3333333,0,0,-1.3333333,0,384)"
     id="g10"><g
       transform="scale(0.1)"
       id="g12"><path
         id="path14"
         style="fill:#3e606f;fill-opacity:1;fill-rule:nonzero;stroke:none"
         d="m 514.648,1394.11 v 619.5 h 111.133 v -619.5 H 514.648" /><path
         id="path16"
         style="fill:#91aab4;fill-opacity:1;fill-rule:nonzero;stroke:none"
         d="M 896.855,1281.73 932.5,914.18 h -84.094 l -20.047,219.97 -85.761,-219.97 h -77.41 L 580.535,1130.81 561.047,914.18 H 479.18 l 35.644,367.55 h 92.996 l 96.352,-254.5 98.016,254.5 h 94.667" /><path
         id="path18"
         style="fill:#91aab4;fill-opacity:1;fill-rule:nonzero;stroke:none"
         d="m 1107.23,1116.33 c 16.71,0 29.32,4.08 37.86,12.25 8.54,8.17 12.81,19.86 12.81,35.09 0,31.54 -16.89,47.34 -50.67,47.34 h -64.6 v -94.68 z m -64.6,-202.15 h -81.314 v 367.55 h 155.374 c 17.82,0 34.34,-2.7 49.57,-8.07 15.21,-5.39 28.49,-13.19 39.81,-23.4 11.32,-10.21 20.24,-22.64 26.74,-37.3 6.49,-14.68 9.74,-31.1 9.74,-49.29 0,-27.11 -6.95,-50.04 -20.88,-68.78 -13.93,-18.75 -32.03,-32.39 -54.3,-40.93 l 107.48,-139.78 h -95.79 l -97.46,131.43 h -38.97 V 914.18" /><path
         id="path20"
         style="fill:#babc16;fill-opacity:1;fill-rule:nonzero;stroke:none"
         d="m 968.762,1480.85 c 167.698,0 182.948,167.71 182.948,247.15 0,177.33 -97.89,270.41 -201.397,268.8 -135.618,-2.41 -175.735,-113.14 -175.735,-229.49 0,-117.95 51.36,-286.46 194.184,-286.46 z m -118.75,-29.68 c -5.617,3.21 -9.629,8.02 -20.871,8.02 -70.606,0 -67.395,-106.72 -85.047,-106.72 -17.656,0 -18.457,14.44 -18.457,29.69 0,82.65 52.957,101.1 52.957,111.54 0,16.85 -102.703,71.41 -102.703,227.88 0,175.72 106.714,308.12 298.496,309.73 156.463,1.6 276.023,-101.91 276.023,-272.02 0,-255.16 -208.63,-296.89 -208.63,-309.73 0,-16.04 95.49,-69.8 141.23,-69.8 36.1,0 52.16,22.46 64.19,22.46 4.81,0 7.22,-4.82 7.22,-10.43 0,-12.03 -65.8,-78.64 -133.2,-78.64 -24.07,0 -56.97,1.61 -113.94,37.72 l -157.268,100.3" /><path
         id="path22"
         style="fill:#3e606f;fill-opacity:1;fill-rule:nonzero;stroke:none"
         d="m 1362.38,1454.51 v 90.61 h -29.58 v 21.59 h 83.81 v -21.59 h -29.41 v -90.61 h -24.82" /><path
         id="path24"
         style="fill:#3e606f;fill-opacity:1;fill-rule:nonzero;stroke:none"
         d="m 1428.33,1454.51 v 113.9 h 24.14 v -50.66 c 3.29,2.94 7.34,5.52 12.16,7.73 4.81,2.21 9.66,3.32 14.53,3.32 3.41,0 6.47,-0.51 9.18,-1.53 2.72,-1.02 5.05,-2.38 6.97,-4.08 1.93,-1.7 3.4,-3.66 4.43,-5.87 1.01,-2.21 1.52,-4.56 1.52,-7.05 v -55.76 h -24.14 v 44.71 c 0,2.72 -0.7,4.87 -2.12,6.46 -1.42,1.58 -3.71,2.38 -6.88,2.38 -2.05,0 -4.51,-0.57 -7.4,-1.7 -2.89,-1.14 -5.64,-3.01 -8.25,-5.61 v -46.24 h -24.14" /><path
         id="path26"
         style="fill:#3e606f;fill-opacity:1;fill-rule:nonzero;stroke:none"
         d="m 1549.38,1511.12 c -3.64,0 -6.62,-1.14 -8.93,-3.41 -2.32,-2.26 -3.77,-5.89 -4.34,-10.87 l 23.8,2.72 c -0.56,3.96 -1.59,6.88 -3.05,8.75 -1.48,1.87 -3.98,2.81 -7.48,2.81 z m 33.82,-24.14 -46.41,-4.76 c 0.68,-3.86 2.44,-6.89 5.27,-9.1 2.83,-2.21 6.63,-3.32 11.39,-3.32 3.29,0 6.26,0.35 8.92,1.03 2.67,0.68 4.96,1.5 6.89,2.46 1.92,0.96 3.51,1.9 4.76,2.81 1.24,0.9 2.09,1.53 2.55,1.87 l 7.99,-14.45 c -1.02,-1.02 -2.46,-2.21 -4.34,-3.57 -1.86,-1.36 -4.21,-2.67 -7.05,-3.91 -2.84,-1.25 -6.09,-2.3 -9.77,-3.15 -3.69,-0.85 -7.85,-1.27 -12.5,-1.27 -4.65,0 -9.3,0.73 -13.94,2.21 -4.65,1.47 -8.83,3.74 -12.58,6.79 -3.74,3.07 -6.77,6.98 -9.1,11.74 -2.32,4.76 -3.48,10.48 -3.48,17.17 0,6.68 1.13,12.49 3.41,17.42 2.26,4.93 5.17,9.01 8.75,12.24 3.57,3.23 7.61,5.64 12.15,7.23 4.53,1.58 9.07,2.38 13.6,2.38 10.65,0 18.95,-3.23 24.91,-9.69 5.95,-6.46 9.2,-15.25 9.77,-26.35 l -1.19,-5.78" /><path
         id="path28"
         style="fill:#3e606f;fill-opacity:1;fill-rule:nonzero;stroke:none"
         d="m 1628.24,1454.51 v 112.2 h 24.83 v -112.2 h -24.83" /><path
         id="path30"
         style="fill:#3e606f;fill-opacity:1;fill-rule:nonzero;stroke:none"
         d="m 1671.59,1454.51 v 71.4 h 22.62 v -9.35 c 3.62,3.4 7.99,6.29 13.08,8.66 5.1,2.39 10.15,3.58 15.13,3.58 3.41,0 6.47,-0.51 9.18,-1.53 2.73,-1.02 5.05,-2.38 6.97,-4.08 1.93,-1.7 3.4,-3.66 4.43,-5.87 1.01,-2.21 1.52,-4.56 1.52,-7.05 v -55.76 h -24.14 v 44.71 c 0,2.72 -0.7,4.87 -2.12,6.46 -1.41,1.58 -3.71,2.38 -6.88,2.38 -2.04,0 -4.5,-0.57 -7.4,-1.7 -2.89,-1.14 -5.64,-3.01 -8.25,-5.61 v -46.24 h -24.14" /><path
         id="path32"
         style="fill:#3e606f;fill-opacity:1;fill-rule:nonzero;stroke:none"
         d="m 1757.62,1478.13 c 2.59,-2.03 6.2,-3.88 10.79,-5.52 4.59,-1.64 9.15,-2.46 13.68,-2.46 8.05,0 12.07,1.75 12.07,5.27 0,1.81 -1.02,3.23 -3.06,4.25 -2.04,1.02 -6.06,2.15 -12.07,3.4 -7.59,1.58 -13.4,3.93 -17.42,7.05 -4.02,3.12 -6.03,8.02 -6.03,14.71 0,7.14 2.56,12.92 7.73,17.34 5.16,4.42 13.06,6.63 23.71,6.63 6.35,0 11.91,-0.68 16.66,-2.04 4.76,-1.36 8.33,-2.95 10.71,-4.76 l -3.06,-17.51 c -2.15,1.24 -5.07,2.52 -8.75,3.82 -3.68,1.3 -7.91,1.96 -12.67,1.96 -2.83,0 -5.24,-0.37 -7.22,-1.11 -1.99,-0.74 -2.97,-1.9 -2.97,-3.48 0,-1.59 1.04,-2.75 3.14,-3.49 2.09,-0.73 5.92,-1.67 11.48,-2.81 3.39,-0.67 6.6,-1.49 9.6,-2.46 3,-0.96 5.61,-2.29 7.82,-4 2.2,-1.69 3.93,-3.82 5.18,-6.37 1.24,-2.55 1.87,-5.75 1.87,-9.6 0,-3.29 -0.63,-6.46 -1.87,-9.52 -1.25,-3.06 -3.23,-5.76 -5.94,-8.08 -2.73,-2.32 -6.21,-4.19 -10.46,-5.61 -4.25,-1.42 -9.38,-2.12 -15.38,-2.12 -8.06,0 -14.57,0.85 -19.55,2.55 -4.99,1.7 -8.68,3.34 -11.06,4.93 l 3.07,19.03" /><path
         id="path34"
         style="fill:#3e606f;fill-opacity:1;fill-rule:nonzero;stroke:none"
         d="m 1858.59,1506.36 v -26.69 c 0,-1.93 0.53,-3.49 1.62,-4.68 1.07,-1.19 2.63,-1.78 4.67,-1.78 1.24,0 2.52,0.17 3.82,0.51 1.31,0.34 2.3,0.73 2.98,1.19 l 2.21,-19.38 c -0.68,-0.57 -2.49,-1.36 -5.44,-2.39 -2.95,-1.01 -6.23,-1.52 -9.86,-1.52 -8.84,0 -15.07,2.32 -18.7,6.97 -3.63,4.64 -5.44,10.71 -5.44,18.19 v 29.58 h -9.52 v 19.55 h 9.52 v 17 h 24.14 v -17 h 15.98 v -19.55 h -15.98" /><path
         id="path36"
         style="fill:#3e606f;fill-opacity:1;fill-rule:nonzero;stroke:none"
         d="m 1887.15,1525.91 h 24.14 v -71.4 h -24.14 z m -3.07,22.78 c 0,4.19 1.48,7.76 4.43,10.7 2.95,2.95 6.51,4.43 10.71,4.43 4.31,0 7.93,-1.48 10.88,-4.43 2.94,-2.94 4.41,-6.51 4.41,-10.7 0,-4.2 -1.47,-7.77 -4.41,-10.71 -2.95,-2.95 -6.57,-4.43 -10.88,-4.43 -4.2,0 -7.76,1.48 -10.71,4.43 -2.95,2.94 -4.43,6.51 -4.43,10.71" /><path
         id="path38"
         style="fill:#3e606f;fill-opacity:1;fill-rule:nonzero;stroke:none"
         d="m 1956.17,1506.36 v -26.69 c 0,-1.93 0.53,-3.49 1.61,-4.68 1.08,-1.19 2.64,-1.78 4.68,-1.78 1.24,0 2.52,0.17 3.82,0.51 1.31,0.34 2.29,0.73 2.98,1.19 l 2.2,-19.38 c -0.67,-0.57 -2.49,-1.36 -5.43,-2.39 -2.95,-1.01 -6.24,-1.52 -9.86,-1.52 -8.85,0 -15.08,2.32 -18.7,6.97 -3.63,4.64 -5.44,10.71 -5.44,18.19 v 29.58 h -9.52 v 19.55 h 9.52 v 17 h 24.14 v -17 h 15.98 v -19.55 h -15.98" /><path
         id="path40"
         style="fill:#3e606f;fill-opacity:1;fill-rule:nonzero;stroke:none"
         d="m 2056.63,1525.91 v -71.4 h -22.61 v 9.35 c -3.74,-3.4 -8.13,-6.29 -13.17,-8.67 -5.05,-2.38 -10.12,-3.57 -15.22,-3.57 -3.39,0 -6.46,0.51 -9.17,1.52 -2.73,1.03 -5.02,2.39 -6.89,4.09 -1.87,1.7 -3.32,3.65 -4.34,5.86 -1.01,2.21 -1.53,4.56 -1.53,7.06 v 55.76 h 24.14 v -44.71 c 0,-2.72 0.69,-4.88 2.04,-6.46 1.36,-1.59 3.68,-2.38 6.98,-2.38 1.92,0 4.36,0.56 7.3,1.7 2.95,1.13 5.72,3 8.33,5.61 v 46.24 h 24.14" /><path
         id="path42"
         style="fill:#3e606f;fill-opacity:1;fill-rule:nonzero;stroke:none"
         d="m 2101.01,1506.36 v -26.69 c 0,-1.93 0.52,-3.49 1.61,-4.68 1.07,-1.19 2.63,-1.78 4.67,-1.78 1.25,0 2.52,0.17 3.82,0.51 1.31,0.34 2.3,0.73 2.98,1.19 l 2.21,-19.38 c -0.67,-0.57 -2.49,-1.36 -5.44,-2.39 -2.95,-1.01 -6.23,-1.52 -9.85,-1.52 -8.85,0 -15.08,2.32 -18.71,6.97 -3.63,4.64 -5.43,10.71 -5.43,18.19 v 29.58 h -9.53 v 19.55 h 9.53 v 17 h 24.14 v -17 h 15.97 v -19.55 h -15.97" /><path
         id="path44"
         style="fill:#3e606f;fill-opacity:1;fill-rule:nonzero;stroke:none"
         d="m 2161.52,1511.12 c -3.63,0 -6.61,-1.14 -8.92,-3.41 -2.33,-2.26 -3.77,-5.89 -4.34,-10.87 l 23.8,2.72 c -0.57,3.96 -1.59,6.88 -3.06,8.75 -1.47,1.87 -3.97,2.81 -7.48,2.81 z m 33.83,-24.14 -46.41,-4.76 c 0.68,-3.86 2.44,-6.89 5.27,-9.1 2.83,-2.21 6.63,-3.32 11.39,-3.32 3.29,0 6.26,0.35 8.92,1.03 2.67,0.68 4.96,1.5 6.89,2.46 1.92,0.96 3.51,1.9 4.76,2.81 1.24,0.9 2.09,1.53 2.55,1.87 l 7.99,-14.45 c -1.02,-1.02 -2.46,-2.21 -4.34,-3.57 -1.86,-1.36 -4.22,-2.67 -7.05,-3.91 -2.84,-1.25 -6.09,-2.3 -9.77,-3.15 -3.69,-0.85 -7.85,-1.27 -12.5,-1.27 -4.65,0 -9.3,0.73 -13.94,2.21 -4.65,1.47 -8.84,3.74 -12.58,6.79 -3.74,3.07 -6.77,6.98 -9.1,11.74 -2.32,4.76 -3.48,10.48 -3.48,17.17 0,6.68 1.13,12.49 3.4,17.42 2.27,4.93 5.18,9.01 8.75,12.24 3.58,3.23 7.62,5.64 12.16,7.23 4.53,1.58 9.06,2.38 13.6,2.38 10.65,0 18.95,-3.23 24.91,-9.69 5.94,-6.46 9.2,-15.25 9.77,-26.35 l -1.19,-5.78" /><path
         id="path46"
         style="fill:#3e606f;fill-opacity:1;fill-rule:nonzero;stroke:none"
         d="m 2244.81,1454.51 v 58.65 h -11.05 v 12.75 h 11.05 v 22.43 c 0,3.07 0.42,5.96 1.27,8.68 0.85,2.72 2.19,5.1 4,7.14 1.81,2.04 4.11,3.68 6.88,4.93 2.79,1.24 6.1,1.87 9.95,1.87 3.85,0 7.03,-0.51 9.53,-1.53 2.49,-1.02 4.01,-1.82 4.59,-2.38 l -2.05,-11.22 c -1.13,0.79 -2.52,1.47 -4.17,2.04 -1.64,0.56 -3.59,0.85 -5.85,0.85 -3.75,0 -6.44,-1.02 -8.08,-3.06 -1.65,-2.04 -2.47,-4.37 -2.47,-6.97 v -22.78 h 18.7 v -12.75 h -18.7 v -58.65 h -13.6" /><path
         id="path48"
         style="fill:#3e606f;fill-opacity:1;fill-rule:nonzero;stroke:none"
         d="m 2297.34,1489.53 c 0,-8.05 2.09,-14.28 6.29,-18.7 4.19,-4.42 9.51,-6.63 15.98,-6.63 6.46,0 11.79,2.43 15.98,7.31 4.2,4.87 6.29,11.33 6.29,19.38 0,8.04 -2.09,14.28 -6.29,18.69 -4.19,4.43 -9.52,6.64 -15.98,6.64 -6.47,0 -11.79,-2.44 -15.98,-7.31 -4.2,-4.88 -6.29,-11.34 -6.29,-19.38 z m 58.82,1.36 c 0,-5.67 -0.91,-10.89 -2.72,-15.64 -1.82,-4.76 -4.37,-8.87 -7.65,-12.33 -3.29,-3.46 -7.14,-6.15 -11.56,-8.07 -4.43,-1.93 -9.3,-2.89 -14.62,-2.89 -5.22,0 -10.06,0.88 -14.53,2.63 -4.48,1.76 -8.36,4.28 -11.65,7.57 -3.29,3.28 -5.84,7.25 -7.65,11.9 -1.82,4.64 -2.72,9.8 -2.72,15.47 0,5.66 0.9,10.88 2.72,15.64 1.81,4.76 4.36,8.86 7.65,12.32 3.29,3.46 7.17,6.15 11.65,8.08 4.47,1.92 9.31,2.89 14.53,2.89 5.32,0 10.19,-0.88 14.62,-2.64 4.42,-1.76 8.27,-4.28 11.56,-7.56 3.28,-3.29 5.83,-7.26 7.65,-11.9 1.81,-4.65 2.72,-9.81 2.72,-15.47" /><path
         id="path50"
         style="fill:#3e606f;fill-opacity:1;fill-rule:nonzero;stroke:none"
         d="m 2410.21,1512.14 c -0.67,0.45 -1.69,0.87 -3.05,1.27 -1.36,0.4 -2.89,0.6 -4.59,0.6 -3.29,0 -6.46,-0.83 -9.52,-2.47 -3.06,-1.64 -5.44,-3.94 -7.14,-6.88 v -50.15 h -13.61 v 71.4 h 12.42 v -9.69 c 0.68,1.36 1.67,2.77 2.98,4.25 1.29,1.47 2.8,2.8 4.5,3.99 1.7,1.19 3.51,2.15 5.44,2.89 1.92,0.74 3.85,1.11 5.78,1.11 2.15,0 4.02,-0.34 5.61,-1.02 1.59,-0.68 2.72,-1.42 3.4,-2.22 l -2.22,-13.08" /><path
         id="path52"
         style="fill:#babc16;fill-opacity:1;fill-rule:nonzero;stroke:none"
         d="m 1359.32,1330.61 c 0,-5.78 0.85,-10.96 2.56,-15.55 1.69,-4.59 4.04,-8.48 7.05,-11.65 2.99,-3.18 6.57,-5.61 10.71,-7.31 4.13,-1.71 8.64,-2.56 13.51,-2.56 4.98,0 9.55,0.85 13.69,2.56 4.13,1.7 7.7,4.13 10.71,7.31 3,3.17 5.35,7.06 7.05,11.65 1.7,4.59 2.55,9.77 2.55,15.55 0,5.78 -0.85,10.96 -2.55,15.55 -1.7,4.59 -4.05,8.48 -7.05,11.65 -3.01,3.17 -6.58,5.61 -10.71,7.31 -4.14,1.7 -8.71,2.55 -13.69,2.55 -4.87,0 -9.38,-0.85 -13.51,-2.55 -4.14,-1.7 -7.72,-4.14 -10.71,-7.31 -3.01,-3.17 -5.36,-7.06 -7.05,-11.65 -1.71,-4.59 -2.56,-9.77 -2.56,-15.55 z m -24.82,0 c 0,8.61 1.51,16.52 4.5,23.72 3.01,7.19 7.11,13.42 12.33,18.7 5.21,5.26 11.41,9.37 18.61,12.32 7.2,2.94 14.93,4.42 23.21,4.42 8.38,0 16.15,-1.48 23.3,-4.42 7.13,-2.95 13.34,-7.06 18.61,-12.32 5.26,-5.28 9.4,-11.51 12.4,-18.7 3.01,-7.2 4.51,-15.11 4.51,-23.72 0,-11.67 -2.66,-22.02 -7.99,-31.03 -5.33,-9 -12.47,-15.95 -21.42,-20.82 l 23.97,-11.56 -3.57,-25.67 -49.81,29.92 c -8.28,0 -16.01,1.47 -23.21,4.42 -7.2,2.95 -13.4,7.05 -18.61,12.32 -5.22,5.28 -9.32,11.51 -12.33,18.7 -2.99,7.2 -4.5,15.1 -4.5,23.72" /><path
         id="path54"
         style="fill:#babc16;fill-opacity:1;fill-rule:nonzero;stroke:none"
         d="m 1533.91,1345.91 v -71.4 h -22.61 v 9.35 c -3.74,-3.4 -8.14,-6.29 -13.17,-8.67 -5.05,-2.38 -10.12,-3.57 -15.22,-3.57 -3.4,0 -6.46,0.51 -9.18,1.52 -2.72,1.03 -5.02,2.39 -6.88,4.09 -1.88,1.7 -3.32,3.66 -4.34,5.87 -1.02,2.2 -1.53,4.56 -1.53,7.05 v 55.76 h 24.14 v -44.71 c 0,-2.72 0.68,-4.87 2.04,-6.46 1.36,-1.59 3.68,-2.38 6.97,-2.38 1.92,0 4.37,0.57 7.31,1.7 2.94,1.14 5.72,3 8.33,5.61 v 46.24 h 24.14" /><path
         id="path56"
         style="fill:#babc16;fill-opacity:1;fill-rule:nonzero;stroke:none"
         d="m 1576.57,1288.96 c 3.64,0 6.47,0.71 8.51,2.12 2.04,1.42 3.46,2.75 4.25,4 v 10.37 l -12.58,-2.21 c -2.5,-0.46 -4.5,-1.22 -6.04,-2.29 -1.53,-1.09 -2.29,-2.82 -2.29,-5.19 0,-1.93 0.7,-3.54 2.12,-4.84 1.41,-1.31 3.42,-1.96 6.03,-1.96 z m 45.23,-12.92 c -0.91,-0.8 -2.67,-1.72 -5.28,-2.81 -2.6,-1.07 -5.78,-1.61 -9.52,-1.61 -4.98,0 -8.64,1.13 -10.96,3.4 -2.32,2.27 -3.72,4.47 -4.16,6.63 -1.7,-2.61 -4.48,-4.93 -8.34,-6.97 -3.84,-2.04 -8.83,-3.06 -14.96,-3.06 -7.13,0 -12.74,2.04 -16.82,6.12 -4.08,4.08 -6.13,9.13 -6.13,15.13 0,7.48 2.05,12.95 6.13,16.41 4.08,3.45 9.24,5.69 15.47,6.71 l 22.1,3.74 v 2.89 c 0,1.59 -0.82,3.14 -2.46,4.67 -1.66,1.54 -4.29,2.3 -7.91,2.3 -2.5,0 -4.79,-0.34 -6.89,-1.03 -2.1,-0.67 -4.02,-1.46 -5.78,-2.37 -1.76,-0.91 -3.25,-1.9 -4.5,-2.98 -1.25,-1.07 -2.27,-2.01 -3.06,-2.8 l -11.4,13.09 c 1.37,1.59 3.04,3.29 5.02,5.1 1.99,1.81 4.39,3.48 7.23,5.01 2.83,1.54 6.11,2.78 9.85,3.74 3.74,0.97 8.05,1.45 12.92,1.45 9.97,0 17.66,-2.33 23.04,-6.97 5.38,-4.65 8.08,-10.94 8.08,-18.87 v -29.92 c 0,-2.49 1.19,-3.74 3.57,-3.74 0.79,0 1.5,0.08 2.12,0.25 0.63,0.18 1.05,0.37 1.28,0.6 l 1.36,-14.11" /><path
         id="path58"
         style="fill:#babc16;fill-opacity:1;fill-rule:nonzero;stroke:none"
         d="m 1631.66,1388.41 h 24.14 v -113.9 h -24.14 v 113.9" /><path
         id="path60"
         style="fill:#babc16;fill-opacity:1;fill-rule:nonzero;stroke:none"
         d="m 1671.61,1345.91 h 24.14 v -71.4 h -24.14 z m -3.07,22.78 c 0,4.19 1.48,7.77 4.43,10.7 2.95,2.95 6.51,4.43 10.71,4.43 4.31,0 7.93,-1.48 10.88,-4.43 2.94,-2.93 4.41,-6.51 4.41,-10.7 0,-4.2 -1.47,-7.76 -4.41,-10.71 -2.95,-2.95 -6.57,-4.43 -10.88,-4.43 -4.2,0 -7.76,1.48 -10.71,4.43 -2.95,2.95 -4.43,6.51 -4.43,10.71" /><path
         id="path62"
         style="fill:#babc16;fill-opacity:1;fill-rule:nonzero;stroke:none"
         d="m 1740.63,1326.36 v -26.69 c 0,-1.93 0.53,-3.49 1.62,-4.68 1.07,-1.18 2.63,-1.78 4.67,-1.78 1.24,0 2.52,0.17 3.82,0.51 1.31,0.34 2.3,0.73 2.98,1.19 l 2.21,-19.38 c -0.68,-0.57 -2.49,-1.36 -5.44,-2.39 -2.95,-1.01 -6.23,-1.52 -9.86,-1.52 -8.84,0 -15.07,2.33 -18.7,6.97 -3.63,4.64 -5.44,10.71 -5.44,18.19 v 29.58 h -9.52 v 19.55 h 9.52 v 17 h 24.14 v -17 h 15.98 v -19.55 h -15.98" /><path
         id="path64"
         style="fill:#babc16;fill-opacity:1;fill-rule:nonzero;stroke:none"
         d="m 1794.85,1288.96 c 3.64,0 6.47,0.71 8.51,2.12 2.04,1.42 3.46,2.75 4.25,4 v 10.37 l -12.58,-2.21 c -2.5,-0.46 -4.5,-1.22 -6.04,-2.29 -1.53,-1.09 -2.29,-2.82 -2.29,-5.19 0,-1.93 0.7,-3.54 2.12,-4.84 1.41,-1.31 3.43,-1.96 6.03,-1.96 z m 45.23,-12.92 c -0.91,-0.8 -2.67,-1.72 -5.28,-2.81 -2.6,-1.07 -5.78,-1.61 -9.52,-1.61 -4.98,0 -8.64,1.13 -10.95,3.4 -2.33,2.27 -3.72,4.47 -4.17,6.63 -1.7,-2.61 -4.48,-4.93 -8.33,-6.97 -3.85,-2.04 -8.84,-3.06 -14.96,-3.06 -7.14,0 -12.75,2.04 -16.83,6.12 -4.08,4.08 -6.12,9.13 -6.12,15.13 0,7.48 2.04,12.95 6.12,16.41 4.08,3.45 9.24,5.69 15.47,6.71 l 22.1,3.74 v 2.89 c 0,1.59 -0.82,3.14 -2.46,4.67 -1.65,1.54 -4.29,2.3 -7.91,2.3 -2.49,0 -4.79,-0.34 -6.89,-1.03 -2.1,-0.67 -4.02,-1.46 -5.78,-2.37 -1.76,-0.91 -3.25,-1.9 -4.5,-2.98 -1.25,-1.07 -2.27,-2.01 -3.06,-2.8 l -11.39,13.09 c 1.36,1.59 3.03,3.29 5.01,5.1 1.99,1.81 4.39,3.48 7.23,5.01 2.83,1.54 6.11,2.78 9.85,3.74 3.75,0.97 8.05,1.45 12.92,1.45 9.98,0 17.66,-2.33 23.04,-6.97 5.38,-4.65 8.08,-10.94 8.08,-18.87 v -29.92 c 0,-2.49 1.19,-3.74 3.57,-3.74 0.79,0 1.5,0.08 2.12,0.25 0.63,0.18 1.05,0.37 1.28,0.6 l 1.36,-14.11" /><path
         id="path66"
         style="fill:#babc16;fill-opacity:1;fill-rule:nonzero;stroke:none"
         d="m 1879.01,1326.36 v -26.69 c 0,-1.93 0.53,-3.49 1.62,-4.68 1.07,-1.18 2.63,-1.78 4.67,-1.78 1.24,0 2.52,0.17 3.82,0.51 1.31,0.34 2.3,0.73 2.98,1.19 l 2.21,-19.38 c -0.68,-0.57 -2.49,-1.36 -5.44,-2.39 -2.95,-1.01 -6.23,-1.52 -9.86,-1.52 -8.84,0 -15.07,2.33 -18.7,6.97 -3.63,4.64 -5.44,10.71 -5.44,18.19 v 29.58 h -9.52 v 19.55 h 9.52 v 17 h 24.14 v -17 h 15.98 v -19.55 h -15.98" /><path
         id="path68"
         style="fill:#babc16;fill-opacity:1;fill-rule:nonzero;stroke:none"
         d="m 1907.57,1345.91 h 24.14 v -71.4 h -24.14 z m -3.07,22.78 c 0,4.19 1.48,7.77 4.43,10.7 2.95,2.95 6.51,4.43 10.71,4.43 4.31,0 7.93,-1.48 10.88,-4.43 2.94,-2.93 4.41,-6.51 4.41,-10.7 0,-4.2 -1.47,-7.76 -4.41,-10.71 -2.95,-2.95 -6.57,-4.43 -10.88,-4.43 -4.2,0 -7.76,1.48 -10.71,4.43 -2.95,2.95 -4.43,6.51 -4.43,10.71" /><path
         id="path70"
         style="fill:#babc16;fill-opacity:1;fill-rule:nonzero;stroke:none"
         d="m 1967.92,1274.51 -26.18,71.4 h 25.84 l 15.47,-48.96 15.64,48.96 h 25.16 l -26.18,-71.4 h -29.75" /><path
         id="path72"
         style="fill:#babc16;fill-opacity:1;fill-rule:nonzero;stroke:none"
         d="m 2063.97,1331.12 c -3.63,0 -6.61,-1.14 -8.92,-3.41 -2.33,-2.26 -3.77,-5.88 -4.34,-10.87 l 23.8,2.72 c -0.56,3.97 -1.59,6.89 -3.05,8.75 -1.48,1.88 -3.98,2.81 -7.49,2.81 z m 33.83,-24.14 -46.41,-4.76 c 0.68,-3.85 2.44,-6.89 5.27,-9.1 2.83,-2.2 6.63,-3.32 11.39,-3.32 3.29,0 6.26,0.35 8.92,1.03 2.67,0.68 4.96,1.5 6.89,2.46 1.92,0.97 3.51,1.91 4.76,2.81 1.24,0.9 2.09,1.53 2.55,1.87 l 7.99,-14.45 c -1.02,-1.02 -2.46,-2.21 -4.34,-3.57 -1.86,-1.36 -4.21,-2.66 -7.05,-3.91 -2.84,-1.25 -6.09,-2.3 -9.77,-3.15 -3.69,-0.85 -7.85,-1.27 -12.5,-1.27 -4.65,0 -9.3,0.73 -13.94,2.21 -4.65,1.47 -8.84,3.74 -12.58,6.79 -3.74,3.07 -6.77,6.98 -9.1,11.74 -2.32,4.76 -3.48,10.48 -3.48,17.17 0,6.68 1.13,12.49 3.4,17.42 2.27,4.93 5.18,9.02 8.75,12.24 3.58,3.23 7.62,5.64 12.16,7.23 4.53,1.59 9.07,2.38 13.6,2.38 10.65,0 18.95,-3.23 24.91,-9.69 5.95,-6.46 9.2,-15.24 9.77,-26.35 l -1.19,-5.78" /><path
         id="path74"
         style="fill:#3e606f;fill-opacity:1;fill-rule:nonzero;stroke:none"
         d="m 2161.2,1362.4 c 0,-4.2 0.82,-7.85 2.47,-10.96 1.64,-3.12 3.82,-6.04 6.54,-8.76 0.23,0 0.4,0.05 0.51,0.17 6.47,1.93 11.36,4.42 14.71,7.48 3.34,3.06 5.01,7.42 5.01,13.09 0,4.53 -1.42,7.91 -4.25,10.12 -2.83,2.2 -6.18,3.31 -10.03,3.31 -3.86,0 -7.3,-1.33 -10.37,-4 -3.06,-2.66 -4.59,-6.14 -4.59,-10.45 z m 17.17,-77.86 c 5.44,0 10.26,1.05 14.45,3.15 4.19,2.09 7.88,4.95 11.06,8.58 l -24.32,19.89 c -2.61,2.04 -5.04,3.97 -7.3,5.78 -2.28,1.81 -4.49,3.63 -6.63,5.44 -4.2,-2.27 -7.43,-5.1 -9.69,-8.5 -2.28,-3.4 -3.41,-7.83 -3.41,-13.26 0,-3.06 0.68,-5.89 2.04,-8.5 1.37,-2.61 3.23,-4.84 5.62,-6.72 2.37,-1.86 5.12,-3.31 8.24,-4.34 3.11,-1.01 6.43,-1.52 9.94,-1.52 z m 55.59,61.37 c 0,-7.48 -0.93,-15.3 -2.8,-23.46 -1.87,-8.16 -4.79,-15.75 -8.76,-22.78 l 17.51,-14.28 -5.95,-13.43 -19.89,16.15 c -4.53,-4.88 -9.94,-8.78 -16.23,-11.73 -6.29,-2.94 -13.57,-4.42 -21.84,-4.42 -6.24,0 -11.73,0.96 -16.5,2.89 -4.75,1.93 -8.73,4.45 -11.89,7.56 -3.19,3.12 -5.59,6.63 -7.23,10.55 -1.65,3.91 -2.47,7.84 -2.47,11.81 0,14.17 6.06,24.76 18.19,31.79 -2.72,3.28 -4.84,6.83 -6.37,10.63 -1.54,3.79 -2.3,8.24 -2.3,13.34 0,3.62 0.66,7.17 1.95,10.62 1.31,3.46 3.18,6.52 5.62,9.18 2.43,2.67 5.44,4.82 9,6.47 3.58,1.64 7.63,2.46 12.16,2.46 4.53,0 8.56,-0.73 12.07,-2.21 3.52,-1.47 6.47,-3.46 8.84,-5.95 2.38,-2.5 4.17,-5.42 5.36,-8.76 1.18,-3.34 1.78,-6.94 1.78,-10.79 0,-6.12 -1.87,-11.56 -5.61,-16.33 -3.74,-4.75 -9.64,-8.66 -17.67,-11.72 1.12,-0.91 2.2,-1.78 3.22,-2.63 1.03,-0.86 2.16,-1.74 3.4,-2.64 l 24.32,-20.06 c 2.93,5.78 5.06,11.99 6.37,18.62 1.3,6.63 1.96,13 1.96,19.12 h 13.76" /><path
         id="path76"
         style="fill:#3e606f;fill-opacity:1;fill-rule:nonzero;stroke:none"
         d="m 1455.71,1206.71 10.37,-112.2 h -14.79 l -7.65,81.09 -36.21,-81.09 h -11.56 l -35.87,80.41 -7.3,-80.41 h -14.12 l 10.2,112.2 h 13.26 l 39.78,-91.12 40.12,91.12 h 13.77" /><path
         id="path78"
         style="fill:#3e606f;fill-opacity:1;fill-rule:nonzero;stroke:none"
         d="m 1545.47,1165.91 v -71.4 h -12.41 v 8.84 c -3.28,-3.17 -7.34,-5.87 -12.15,-8.08 -4.83,-2.2 -9.72,-3.31 -14.71,-3.31 -6.45,0 -11.59,1.73 -15.38,5.19 -3.8,3.45 -5.7,7.56 -5.7,12.32 v 56.44 h 13.6 v -48.79 c 0,-3.63 0.97,-6.51 2.89,-8.67 1.93,-2.15 5.04,-3.24 9.35,-3.24 2.6,0 5.9,0.75 9.86,2.22 3.97,1.47 7.65,4.03 11.06,7.65 v 50.83 h 13.59" /><path
         id="path80"
         style="fill:#3e606f;fill-opacity:1;fill-rule:nonzero;stroke:none"
         d="m 1566.73,1208.41 h 13.59 v -113.9 h -13.59 v 113.9" /><path
         id="path82"
         style="fill:#3e606f;fill-opacity:1;fill-rule:nonzero;stroke:none"
         d="m 1620.27,1153.16 v -41.65 c 0,-2.61 0.69,-4.48 2.04,-5.61 1.37,-1.13 3.18,-1.7 5.44,-1.7 1.37,0 2.87,0.19 4.52,0.59 1.64,0.4 2.86,0.88 3.65,1.45 l 2.04,-11.22 c -0.34,-0.23 -1.65,-0.79 -3.92,-1.7 -2.26,-0.91 -4.92,-1.36 -7.99,-1.36 -7.02,0 -12.01,1.78 -14.96,5.35 -2.95,3.58 -4.41,8.42 -4.41,14.54 v 41.31 h -11.05 v 12.75 h 11.05 v 17 h 13.59 v -17 h 18.7 v -12.75 h -18.7" /><path
         id="path84"
         style="fill:#3e606f;fill-opacity:1;fill-rule:nonzero;stroke:none"
         d="m 1656.83,1165.91 h 13.59 v -71.4 h -13.59 z m -2.56,22.78 c 0,2.61 0.91,4.82 2.72,6.63 1.81,1.81 4.03,2.72 6.63,2.72 2.61,0 4.82,-0.91 6.63,-2.72 1.81,-1.81 2.72,-4.02 2.72,-6.63 0,-2.61 -0.91,-4.82 -2.72,-6.63 -1.81,-1.82 -4.02,-2.72 -6.63,-2.72 -2.6,0 -4.82,0.9 -6.63,2.72 -1.81,1.81 -2.72,4.02 -2.72,6.63" /><path
         id="path86"
         style="fill:#3e606f;fill-opacity:1;fill-rule:nonzero;stroke:none"
         d="m 1688.27,1135.48 v 13.26 h 37.4 v -13.26 h -37.4" /><path
         id="path88"
         style="fill:#3e606f;fill-opacity:1;fill-rule:nonzero;stroke:none"
         d="m 1859.46,1206.71 10.37,-112.2 h -14.79 l -7.65,81.09 -36.21,-81.09 h -11.56 l -35.87,80.41 -7.3,-80.41 h -14.12 l 10.2,112.2 h 13.26 l 39.78,-91.12 40.12,91.12 h 13.77" /><path
         id="path90"
         style="fill:#3e606f;fill-opacity:1;fill-rule:nonzero;stroke:none"
         d="m 1919.47,1156.22 c -5.21,0 -9.55,-1.65 -13.01,-4.93 -3.45,-3.29 -5.58,-8.5 -6.37,-15.65 l 34.69,4.09 c -0.81,5.66 -2.28,9.83 -4.43,12.5 -2.16,2.65 -5.78,3.99 -10.88,3.99 z m 29.58,-26.86 -48.96,-5.27 c 0.91,-6.69 3.29,-11.68 7.15,-14.96 3.84,-3.29 8.83,-4.93 14.95,-4.93 3.17,0 5.95,0.37 8.33,1.1 2.38,0.74 4.42,1.59 6.12,2.55 1.7,0.97 3.06,1.93 4.08,2.89 1.02,0.97 1.7,1.67 2.04,2.13 l 7.14,-9.35 c -0.68,-0.91 -1.76,-2.05 -3.23,-3.4 -1.47,-1.36 -3.34,-2.64 -5.61,-3.82 -2.27,-1.19 -4.96,-2.22 -8.07,-3.07 -3.13,-0.85 -6.72,-1.27 -10.8,-1.27 -4.65,0 -9.18,0.71 -13.6,2.12 -4.42,1.42 -8.33,3.63 -11.72,6.63 -3.41,3.01 -6.16,6.89 -8.26,11.65 -2.1,4.76 -3.14,10.48 -3.14,17.17 0,6.68 0.97,12.46 2.89,17.34 1.92,4.87 4.48,8.92 7.66,12.15 3.16,3.24 6.82,5.62 10.95,7.14 4.14,1.54 8.36,2.3 12.67,2.3 18.82,0 28.85,-11.9 30.1,-35.7 l -0.69,-3.4" /><path
         id="path92"
         style="fill:#3e606f;fill-opacity:1;fill-rule:nonzero;stroke:none"
         d="m 1984.92,1153.16 v -41.65 c 0,-2.61 0.69,-4.48 2.04,-5.61 1.37,-1.13 3.18,-1.7 5.44,-1.7 1.37,0 2.86,0.19 4.51,0.59 1.64,0.4 2.87,0.88 3.66,1.45 l 2.04,-11.22 c -0.34,-0.23 -1.65,-0.79 -3.92,-1.7 -2.26,-0.91 -4.92,-1.36 -7.99,-1.36 -7.02,0 -12.01,1.78 -14.96,5.35 -2.95,3.58 -4.41,8.42 -4.41,14.54 v 41.31 h -11.06 v 12.75 h 11.06 v 17 h 13.59 v -17 h 18.7 v -12.75 h -18.7" /><path
         id="path94"
         style="fill:#3e606f;fill-opacity:1;fill-rule:nonzero;stroke:none"
         d="m 2020.62,1094.51 v 113.9 h 13.6 v -50.32 c 3.29,2.95 7.2,5.41 11.73,7.4 4.53,1.98 9.18,2.97 13.94,2.97 6.46,0 11.58,-1.73 15.38,-5.19 3.8,-3.46 5.7,-7.56 5.7,-12.32 v -56.44 h -13.6 v 48.79 c 0,3.62 -0.96,6.51 -2.89,8.67 -1.93,2.15 -5.05,3.23 -9.35,3.23 -2.61,0 -5.89,-0.74 -9.86,-2.21 -3.97,-1.48 -7.65,-4.03 -11.05,-7.65 v -50.83 h -13.6" /><path
         id="path96"
         style="fill:#3e606f;fill-opacity:1;fill-rule:nonzero;stroke:none"
         d="m 2110.56,1129.53 c 0,-8.05 2.09,-14.28 6.29,-18.7 4.19,-4.42 9.51,-6.63 15.97,-6.63 6.47,0 11.79,2.43 15.98,7.31 4.2,4.87 6.29,11.33 6.29,19.38 0,8.05 -2.09,14.28 -6.29,18.7 -4.19,4.42 -9.51,6.63 -15.98,6.63 -6.46,0 -11.78,-2.44 -15.97,-7.31 -4.2,-4.88 -6.29,-11.33 -6.29,-19.38 z m 58.82,1.36 c 0,-5.67 -0.91,-10.88 -2.73,-15.64 -1.82,-4.76 -4.36,-8.87 -7.65,-12.33 -3.29,-3.46 -7.13,-6.14 -11.56,-8.07 -4.42,-1.93 -9.3,-2.89 -14.62,-2.89 -5.21,0 -10.06,0.88 -14.53,2.63 -4.48,1.76 -8.36,4.28 -11.65,7.57 -3.29,3.29 -5.84,7.25 -7.65,11.9 -1.81,4.64 -2.72,9.8 -2.72,15.47 0,5.67 0.91,10.88 2.72,15.64 1.81,4.76 4.36,8.86 7.65,12.32 3.29,3.46 7.17,6.15 11.65,8.08 4.47,1.92 9.32,2.89 14.53,2.89 5.32,0 10.2,-0.88 14.62,-2.64 4.43,-1.76 8.27,-4.28 11.56,-7.56 3.29,-3.29 5.83,-7.25 7.65,-11.9 1.82,-4.65 2.73,-9.81 2.73,-15.47" /><path
         id="path98"
         style="fill:#3e606f;fill-opacity:1;fill-rule:nonzero;stroke:none"
         d="m 2216.97,1104.2 c 3.97,0 7.74,0.94 11.31,2.8 3.57,1.88 6.49,4.51 8.75,7.91 v 30.6 c -2.26,3.4 -5.18,6.03 -8.75,7.91 -3.57,1.86 -7.34,2.8 -11.31,2.8 -6.46,0 -11.64,-2.32 -15.55,-6.97 -3.91,-4.65 -5.86,-11.22 -5.86,-19.72 0,-8.5 1.95,-14.85 5.86,-19.04 3.91,-4.19 9.09,-6.29 15.55,-6.29 z m -35.7,25.33 c 0,6.11 0.94,11.61 2.81,16.49 1.87,4.87 4.36,8.95 7.47,12.24 3.13,3.28 6.75,5.8 10.89,7.56 4.13,1.76 8.47,2.64 13,2.64 4.08,0 7.96,-0.76 11.65,-2.3 3.68,-1.52 6.99,-3.71 9.94,-6.54 v 48.79 h 13.6 v -113.9 h -12.75 v 6.96 c -2.95,-2.93 -6.35,-5.26 -10.19,-6.96 -3.86,-1.7 -7.94,-2.55 -12.25,-2.55 -4.53,0 -8.87,0.79 -13,2.38 -4.14,1.59 -7.76,3.96 -10.89,7.13 -3.11,3.18 -5.6,7.12 -7.47,11.82 -1.87,4.71 -2.81,10.12 -2.81,16.24" /><path
         id="path100"
         style="fill:#3e606f;fill-opacity:1;fill-rule:nonzero;stroke:none"
         d="m 1376.15,974.012 c 7.14,0 12.43,1.699 15.89,5.097 3.46,3.403 5.19,8.332 5.19,14.789 0,6.462 -1.73,11.392 -5.19,14.792 -3.46,3.4 -8.75,5.1 -15.89,5.1 h -21.25 v -39.778 z m -21.25,-59.5 h -14.62 v 112.198 h 37.06 c 4.88,0 9.44,-0.76 13.69,-2.3 4.24,-1.53 7.93,-3.68 11.05,-6.45 3.12,-2.78 5.58,-6.21 7.39,-10.29 1.81,-4.08 2.72,-8.67 2.72,-13.772 0,-8.5 -2.4,-15.5 -7.23,-21 -4.81,-5.5 -10.96,-9.027 -18.44,-10.617 l 36.72,-47.769 h -18.36 l -34.67,46.75 h -15.31 v -46.75" /><path
         id="path102"
         style="fill:#3e606f;fill-opacity:1;fill-rule:nonzero;stroke:none"
         d="m 1462,976.219 c -5.21,0 -9.55,-1.649 -13.01,-4.93 -3.45,-3.289 -5.58,-8.5 -6.37,-15.648 l 34.68,4.089 c -0.8,5.661 -2.27,9.829 -4.42,12.5 -2.16,2.649 -5.78,3.989 -10.88,3.989 z m 29.58,-26.86 -48.96,-5.269 c 0.91,-6.692 3.29,-11.68 7.15,-14.961 3.84,-3.289 8.83,-4.93 14.95,-4.93 3.17,0 5.95,0.371 8.33,1.102 2.38,0.738 4.42,1.59 6.12,2.551 1.7,0.968 3.06,1.929 4.08,2.886 1.02,0.973 1.7,1.672 2.04,2.133 l 7.14,-9.351 c -0.68,-0.911 -1.76,-2.051 -3.23,-3.399 -1.48,-1.359 -3.34,-2.641 -5.61,-3.82 -2.27,-1.192 -4.96,-2.219 -8.07,-3.071 -3.13,-0.851 -6.72,-1.269 -10.8,-1.269 -4.65,0 -9.18,0.711 -13.6,2.121 -4.42,1.418 -8.33,3.629 -11.73,6.629 -3.4,3.008 -6.15,6.891 -8.25,11.648 -2.1,4.762 -3.14,10.481 -3.14,17.172 0,6.68 0.96,12.457 2.89,17.34 1.92,4.867 4.48,8.918 7.65,12.149 3.17,3.242 6.83,5.621 10.96,7.14 4.14,1.539 8.36,2.301 12.67,2.301 18.82,0 28.85,-11.902 30.1,-35.699 l -0.69,-3.403" /><path
         id="path104"
         style="fill:#3e606f;fill-opacity:1;fill-rule:nonzero;stroke:none"
         d="m 1505.87,932.531 c 2.6,-2.043 5.77,-3.832 9.51,-5.351 3.74,-1.539 7.76,-2.301 12.07,-2.301 4.99,0 8.87,0.851 11.65,2.551 2.78,1.699 4.16,3.851 4.16,6.461 0,1.359 -0.22,2.55 -0.67,3.57 -0.46,1.019 -1.28,2.008 -2.47,2.969 -1.19,0.968 -2.86,1.902 -5.01,2.808 -2.16,0.903 -4.93,1.871 -8.33,2.891 -3.52,1.019 -6.63,2.121 -9.36,3.312 -2.71,1.188 -5.01,2.579 -6.88,4.168 -1.87,1.59 -3.31,3.481 -4.34,5.7 -1.01,2.203 -1.52,4.902 -1.52,8.07 0,6.121 2.23,11.16 6.71,15.133 4.48,3.957 10.96,5.949 19.47,5.949 4.86,0 9.18,-0.57 12.92,-1.699 3.74,-1.141 6.8,-2.614 9.18,-4.422 l -2.22,-12.238 c -2.15,1.25 -4.87,2.468 -8.15,3.648 -3.29,1.191 -7.32,1.789 -12.07,1.789 -3.64,0 -6.5,-0.629 -8.59,-1.867 -2.1,-1.25 -3.14,-3.063 -3.14,-5.442 0,-2.378 1.04,-4.171 3.14,-5.359 2.09,-1.191 5.86,-2.633 11.3,-4.332 3.18,-1.019 6.23,-2.07 9.18,-3.148 2.95,-1.071 5.53,-2.43 7.74,-4.071 2.21,-1.648 3.96,-3.718 5.27,-6.211 1.3,-2.488 1.95,-5.668 1.95,-9.519 0,-3.289 -0.59,-6.371 -1.78,-9.262 -1.19,-2.887 -2.97,-5.387 -5.36,-7.476 -2.38,-2.102 -5.33,-3.774 -8.83,-5.024 -3.52,-1.238 -7.66,-1.867 -12.42,-1.867 -6.12,0 -11.27,0.738 -15.46,2.211 -4.2,1.469 -7.48,3 -9.87,4.59 l 2.22,13.769" /><path
         id="path106"
         style="fill:#3e606f;fill-opacity:1;fill-rule:nonzero;stroke:none"
         d="m 1602.08,976.219 c -5.21,0 -9.55,-1.649 -13.01,-4.93 -3.45,-3.289 -5.58,-8.5 -6.37,-15.648 l 34.68,4.089 c -0.8,5.661 -2.27,9.829 -4.42,12.5 -2.16,2.649 -5.78,3.989 -10.88,3.989 z m 29.58,-26.86 -48.96,-5.269 c 0.9,-6.692 3.29,-11.68 7.14,-14.961 3.85,-3.289 8.84,-4.93 14.95,-4.93 3.18,0 5.96,0.371 8.34,1.102 2.38,0.738 4.42,1.59 6.12,2.551 1.7,0.968 3.05,1.929 4.08,2.886 1.02,0.973 1.7,1.672 2.04,2.133 l 7.14,-9.351 c -0.68,-0.911 -1.76,-2.051 -3.23,-3.399 -1.48,-1.359 -3.34,-2.641 -5.61,-3.82 -2.27,-1.192 -4.96,-2.219 -8.07,-3.071 -3.13,-0.851 -6.72,-1.269 -10.81,-1.269 -4.64,0 -9.17,0.711 -13.59,2.121 -4.42,1.418 -8.33,3.629 -11.73,6.629 -3.41,3.008 -6.15,6.891 -8.25,11.648 -2.1,4.762 -3.14,10.481 -3.14,17.172 0,6.68 0.96,12.457 2.89,17.34 1.92,4.867 4.48,8.918 7.65,12.149 3.17,3.242 6.83,5.621 10.96,7.14 4.14,1.539 8.36,2.301 12.67,2.301 18.81,0 28.84,-11.902 30.09,-35.699 l -0.68,-3.403" /><path
         id="path108"
         style="fill:#3e606f;fill-opacity:1;fill-rule:nonzero;stroke:none"
         d="m 1670.08,923.691 c 5.11,0 9.1,0.989 11.99,2.969 2.89,1.981 4.9,3.891 6.04,5.699 v 15.813 l -18.36,-3.231 c -3.4,-0.57 -6.16,-1.73 -8.26,-3.48 -2.1,-1.762 -3.14,-4.281 -3.14,-7.57 0,-2.719 1.03,-5.102 3.07,-7.141 2.04,-2.039 4.93,-3.059 8.66,-3.059 z m 39.62,-8.5 c -1.03,-0.902 -2.39,-1.671 -4.08,-2.3 -1.7,-0.61 -3.52,-0.93 -5.44,-0.93 -3.74,0 -6.56,0.988 -8.42,2.969 -1.87,1.98 -2.86,4.109 -2.98,6.379 -1.58,-2.829 -4.44,-5.098 -8.58,-6.797 -4.15,-1.703 -8.53,-2.551 -13.18,-2.551 -6.8,0 -12.26,1.988 -16.4,5.949 -4.15,3.961 -6.21,8.961 -6.21,14.961 0,3.738 0.6,6.938 1.79,9.598 1.19,2.672 2.77,4.902 4.76,6.722 1.98,1.809 4.27,3.231 6.88,4.25 2.61,1.02 5.32,1.758 8.17,2.2 l 22.1,3.738 v 6.473 c 0,2.828 -1.06,5.207 -3.15,7.136 -2.1,1.922 -4.96,2.891 -8.58,2.891 -2.73,0 -5.22,-0.481 -7.48,-1.449 -2.28,-0.961 -4.29,-2.098 -6.04,-3.391 -1.76,-1.309 -3.23,-2.609 -4.42,-3.91 -1.19,-1.309 -2.13,-2.348 -2.81,-3.16 l -8.67,8.679 c 1.36,1.704 2.92,3.481 4.68,5.364 1.76,1.859 3.85,3.558 6.29,5.097 2.43,1.532 5.26,2.801 8.5,3.821 3.23,1.019 6.94,1.531 11.13,1.531 8.39,0 14.51,-2.121 18.36,-6.383 3.86,-4.246 5.78,-9.539 5.78,-15.887 V 927.77 c 0,-2.719 1.25,-4.079 3.74,-4.079 0.68,0 1.42,0.11 2.22,0.34 0.33,0.11 0.61,0.231 0.85,0.34 l 1.19,-9.18" /><path
         id="path110"
         style="fill:#3e606f;fill-opacity:1;fill-rule:nonzero;stroke:none"
         d="m 1761.53,972.141 c -0.67,0.449 -1.7,0.879 -3.05,1.281 -1.36,0.387 -2.89,0.59 -4.59,0.59 -3.29,0 -6.46,-0.832 -9.52,-2.473 -3.06,-1.641 -5.44,-3.93 -7.14,-6.879 v -50.148 h -13.61 v 71.398 h 12.42 v -9.691 c 0.68,1.359 1.67,2.769 2.97,4.25 1.3,1.472 2.81,2.801 4.51,3.992 1.69,1.187 3.51,2.148 5.44,2.891 1.92,0.738 3.85,1.109 5.78,1.109 2.14,0 4.02,-0.34 5.61,-1.02 1.58,-0.679 2.72,-1.41 3.4,-2.222 l -2.22,-13.078" /><path
         id="path112"
         style="fill:#3e606f;fill-opacity:1;fill-rule:nonzero;stroke:none"
         d="m 1784.66,949.531 c 0,-8.5 2.09,-14.851 6.29,-19.043 4.19,-4.187 9.51,-6.289 15.97,-6.289 2.61,0 4.91,0.281 6.89,0.852 1.98,0.57 3.71,1.219 5.18,1.949 1.48,0.738 2.7,1.512 3.66,2.301 0.96,0.789 1.62,1.41 1.95,1.871 l 7.15,-9.352 c -0.69,-0.91 -1.76,-1.929 -3.23,-3.058 -1.48,-1.133 -3.27,-2.211 -5.37,-3.231 -2.09,-1.019 -4.53,-1.871 -7.3,-2.551 -2.78,-0.691 -5.87,-1.019 -9.27,-1.019 -4.41,0 -8.78,0.711 -13.08,2.121 -4.31,1.418 -8.17,3.629 -11.57,6.629 -3.39,3.008 -6.18,6.891 -8.33,11.648 -2.15,4.762 -3.23,10.481 -3.23,17.172 0,6.68 1.08,12.457 3.23,17.34 2.15,4.867 4.99,8.918 8.5,12.149 3.52,3.242 7.51,5.621 11.99,7.14 4.47,1.539 9.04,2.301 13.68,2.301 4.53,0 8.68,-0.57 12.42,-1.699 3.74,-1.141 6.57,-2.492 8.49,-4.082 l -2.37,-12.41 c -1.93,1.359 -4.29,2.691 -7.06,4 -2.78,1.3 -6.32,1.949 -10.63,1.949 -7.03,0 -12.78,-2.321 -17.25,-6.969 -4.48,-4.648 -6.71,-11.219 -6.71,-19.719" /><path
         id="path114"
         style="fill:#3e606f;fill-opacity:1;fill-rule:nonzero;stroke:none"
         d="m 1846.52,914.512 v 113.898 h 13.61 v -50.32 c 3.29,2.949 7.19,5.41 11.73,7.398 4.53,1.981 9.18,2.973 13.94,2.973 6.46,0 11.58,-1.731 15.38,-5.191 3.8,-3.461 5.7,-7.559 5.7,-12.321 v -56.437 h -13.6 v 48.789 c 0,3.621 -0.97,6.508 -2.89,8.668 -1.93,2.152 -5.05,3.23 -9.35,3.23 -2.61,0 -5.89,-0.738 -9.86,-2.211 -3.97,-1.476 -7.65,-4.027 -11.05,-7.648 v -50.828 h -13.61" /></g></g></svg>