<svg version="1.1" id="Layer_1" xmlns="http://www.w3.org/2000/svg" xmlns:xlink="http://www.w3.org/1999/xlink" x="0px" y="0px"
	 width="100%" viewBox="0 0 384 384" enable-background="new 0 0 384 384" xml:space="preserve">
<path fill="#FFFFFF" opacity="1.000000" stroke="none" 
	d="
M251.000000,385.000000 
	C167.333344,385.000000 84.166695,385.000000 1.000033,385.000000 
	C1.000022,257.000031 1.000022,129.000076 1.000011,1.000085 
	C128.999939,1.000057 256.999878,1.000057 384.999878,1.000028 
	C384.999908,128.999924 384.999908,256.999847 384.999939,384.999878 
	C340.500000,385.000000 296.000000,385.000000 251.000000,385.000000 
M109.020569,72.960800 
	C109.013718,118.157005 108.997536,163.353226 109.040314,208.549377 
	C109.041756,210.068954 109.638214,211.587982 110.437286,213.828796 
	C118.860664,213.828796 127.284050,213.828796 135.705902,213.828796 
	C135.705902,166.045303 135.705902,118.682152 135.705902,71.000023 
	C127.950150,71.000023 120.484528,70.951103 113.020760,71.046646 
	C111.728897,71.063179 110.444855,71.691696 109.020569,72.960800 
M258.439697,227.133987 
	C266.491272,224.099014 273.817352,219.988602 278.739166,212.644333 
	C279.506226,211.499756 279.300049,209.702957 279.543945,208.207764 
	C278.053040,208.289749 276.467194,208.072464 275.089050,208.509781 
	C270.934998,209.828018 266.645874,213.062927 262.797394,212.563110 
	C251.203247,211.057358 241.148193,205.355942 231.004944,197.724991 
	C233.252167,196.518814 234.731888,195.722321 236.213654,194.929642 
	C245.794327,189.804413 255.450790,184.523453 262.364410,176.000427 
	C278.808594,155.728210 282.652100,132.222061 276.755554,107.446335 
	C272.466431,89.424477 261.401672,76.261032 243.740036,68.796089 
	C228.420349,62.320984 212.812637,61.829277 197.045212,65.190712 
	C181.560791,68.491814 168.839828,76.625175 159.583527,89.815796 
	C149.088318,104.771881 145.985016,121.401321 146.836288,139.391510 
	C147.421509,151.758667 150.684830,162.873535 158.000122,172.734573 
	C161.601288,177.588959 165.699371,182.074722 169.584183,186.741211 
	C158.879913,197.308289 157.347687,204.626968 158.136276,215.100571 
	C158.263382,216.788651 160.183060,218.341751 161.274109,219.957260 
	C162.569351,218.799759 164.376022,217.885880 165.064972,216.439575 
	C167.226898,211.901093 168.684097,207.019455 170.938492,202.534210 
	C174.344315,195.758148 180.965759,193.694595 186.654953,197.299393 
	C197.812088,204.368851 209.025864,211.354706 220.046936,218.631516 
	C231.589462,226.252640 243.570312,231.524994 258.439697,227.133987 
M184.027313,304.217224 
	C184.796890,310.372711 185.566452,316.528168 186.338547,322.703857 
	C193.002518,322.703857 199.255356,322.703857 206.304779,322.703857 
	C203.516464,294.276459 200.764679,266.221436 197.996765,238.002167 
	C190.792099,238.002167 184.465149,237.841782 178.158463,238.127991 
	C176.780777,238.190506 174.791534,239.555634 174.252579,240.819275 
	C171.608139,247.019577 169.395889,253.402710 166.960678,259.694061 
	C162.592575,270.979156 158.174210,282.244812 153.592682,293.990692 
	C152.630554,292.147339 151.800461,290.889160 151.282303,289.513489 
	C145.189026,273.336639 139.182144,257.127014 133.003952,240.982864 
	C132.540039,239.770599 130.972610,238.187561 129.864960,238.144470 
	C123.093918,237.881058 116.307495,238.012741 109.465767,238.012741 
	C106.726616,266.556488 104.041504,294.537201 101.347755,322.607788 
	C107.969986,322.607788 114.355820,322.607788 121.020576,322.607788 
	C122.484566,306.823547 123.915169,291.399231 125.421089,275.162872 
	C130.272736,287.562256 134.753998,299.187836 139.383682,310.753998 
	C141.017166,314.834930 142.006332,320.366425 145.121796,322.332733 
	C148.366623,324.380615 153.842102,322.696930 158.306717,323.070129 
	C162.027145,323.381104 163.213257,321.770660 164.442917,318.422882 
	C169.813049,303.802460 175.648392,289.352936 181.650925,273.980682 
	C182.487167,284.394226 183.245728,293.840424 184.027313,304.217224 
M284.327454,322.117371 
	C283.764587,321.125305 283.310303,320.049866 282.622131,319.154053 
	C275.416351,309.774261 268.173126,300.423248 260.763153,290.835114 
	C261.744598,290.079193 262.434265,289.405396 263.245056,288.944794 
	C276.560791,281.380249 279.569153,269.645386 275.623810,255.491333 
	C273.808685,248.979477 269.757416,243.596024 263.140656,241.143326 
	C259.053131,239.628143 254.653732,238.274475 250.353973,238.140060 
	C237.761856,237.746445 225.149521,238.000000 212.360275,238.000000 
	C212.360275,266.577881 212.360275,294.591797 212.360275,322.715271 
	C218.634811,322.715271 224.546692,322.715271 231.096649,322.715271 
	C231.096649,312.731476 231.096649,303.018829 231.096649,293.548401 
	C236.988922,291.901520 240.721954,293.380127 243.833511,298.169739 
	C248.567993,305.457489 253.858749,312.402344 259.226349,319.247314 
	C260.581848,320.975922 263.064178,322.691589 265.132904,322.827545 
	C271.422852,323.240967 277.763763,322.878967 284.327454,322.117371 
z"/>
<path fill="#BABC16" opacity="1.000000" stroke="none" 
	d="
M258.120880,227.399338 
	C243.570312,231.524994 231.589462,226.252640 220.046936,218.631516 
	C209.025864,211.354706 197.812088,204.368851 186.654953,197.299393 
	C180.965759,193.694595 174.344315,195.758148 170.938492,202.534210 
	C168.684097,207.019455 167.226898,211.901093 165.064972,216.439575 
	C164.376022,217.885880 162.569351,218.799759 161.274109,219.957245 
	C160.183060,218.341751 158.263382,216.788651 158.136276,215.100571 
	C157.347687,204.626968 158.879913,197.308289 169.584183,186.741211 
	C165.699371,182.074722 161.601288,177.588959 158.000122,172.734573 
	C150.684830,162.873535 147.421509,151.758667 146.836288,139.391510 
	C145.985016,121.401321 149.088318,104.771881 159.583527,89.815796 
	C168.839828,76.625175 181.560791,68.491814 197.045212,65.190712 
	C212.812637,61.829277 228.420349,62.320984 243.740036,68.796089 
	C261.401672,76.261032 272.466431,89.424477 276.755554,107.446335 
	C282.652100,132.222061 278.808594,155.728210 262.364410,176.000427 
	C255.450790,184.523453 245.794327,189.804413 236.213654,194.929642 
	C234.731888,195.722321 233.252167,196.518814 231.004944,197.724991 
	C241.148193,205.355942 251.203247,211.057358 262.797394,212.563110 
	C266.645874,213.062927 270.934998,209.828018 275.089050,208.509781 
	C276.467194,208.072464 278.053040,208.289749 279.543945,208.207764 
	C279.300049,209.702957 279.506226,211.499756 278.739166,212.644333 
	C273.817352,219.988602 266.491272,224.099014 258.120880,227.399338 
M200.922638,73.066383 
	C196.121201,75.371040 190.805298,76.985443 186.614258,80.109085 
	C173.767807,89.683754 171.250656,104.198120 170.120560,118.809036 
	C168.993805,133.376389 171.461792,147.735794 177.215439,161.097458 
	C183.845169,176.493683 195.851181,190.591049 217.163040,189.110275 
	C234.137726,187.930862 244.761108,179.468765 249.809280,165.830032 
	C257.583771,144.825439 257.634827,123.306503 249.832077,102.269485 
	C245.317932,90.098854 236.984085,80.718887 224.760101,75.342201 
	C217.351639,72.083595 209.710907,71.145493 200.922638,73.066383 
z"/>
<path fill="#91AAB4" opacity="1.000000" stroke="none" 
	d="
M184.015808,303.751923 
	C183.245728,293.840424 182.487167,284.394226 181.650925,273.980682 
	C175.648392,289.352936 169.813049,303.802460 164.442917,318.422882 
	C163.213257,321.770660 162.027145,323.381104 158.306717,323.070129 
	C153.842102,322.696930 148.366623,324.380615 145.121796,322.332733 
	C142.006332,320.366425 141.017166,314.834930 139.383682,310.753998 
	C134.753998,299.187836 130.272736,287.562256 125.421089,275.162872 
	C123.915169,291.399231 122.484566,306.823547 121.020576,322.607788 
	C114.355820,322.607788 107.969986,322.607788 101.347755,322.607788 
	C104.041504,294.537201 106.726616,266.556488 109.465767,238.012741 
	C116.307495,238.012741 123.093918,237.881058 129.864960,238.144470 
	C130.972610,238.187561 132.540039,239.770599 133.003952,240.982864 
	C139.182144,257.127014 145.189026,273.336639 151.282303,289.513489 
	C151.800461,290.889160 152.630554,292.147339 153.592682,293.990692 
	C158.174210,282.244812 162.592575,270.979156 166.960678,259.694061 
	C169.395889,253.402710 171.608139,247.019577 174.252579,240.819275 
	C174.791534,239.555634 176.780777,238.190506 178.158463,238.127991 
	C184.465149,237.841782 190.792099,238.002167 197.996765,238.002167 
	C200.764679,266.221436 203.516464,294.276459 206.304779,322.703857 
	C199.255356,322.703857 193.002518,322.703857 186.338547,322.703857 
	C185.566452,316.528168 184.796890,310.372711 184.015808,303.751923 
z"/>
<path fill="#91AAB4" opacity="1.000000" stroke="none" 
	d="
M284.206116,322.468140 
	C277.763763,322.878967 271.422852,323.240967 265.132904,322.827545 
	C263.064178,322.691589 260.581848,320.975922 259.226349,319.247314 
	C253.858749,312.402344 248.567993,305.457489 243.833511,298.169739 
	C240.721954,293.380127 236.988922,291.901520 231.096649,293.548401 
	C231.096649,303.018829 231.096649,312.731476 231.096649,322.715271 
	C224.546692,322.715271 218.634811,322.715271 212.360275,322.715271 
	C212.360275,294.591797 212.360275,266.577881 212.360275,238.000000 
	C225.149521,238.000000 237.761856,237.746445 250.353973,238.140060 
	C254.653732,238.274475 259.053131,239.628143 263.140656,241.143326 
	C269.757416,243.596024 273.808685,248.979477 275.623810,255.491333 
	C279.569153,269.645386 276.560791,281.380249 263.245056,288.944794 
	C262.434265,289.405396 261.744598,290.079193 260.763153,290.835114 
	C268.173126,300.423248 275.416351,309.774261 282.622131,319.154053 
	C283.310303,320.049866 283.764587,321.125305 284.206116,322.468140 
M242.424011,255.000000 
	C238.691772,255.000000 234.959549,255.000000 231.341583,255.000000 
	C231.341583,262.109161 231.341583,268.345642 231.341583,274.999908 
	C236.793671,274.999908 241.941177,274.646423 247.019470,275.088409 
	C253.525269,275.654663 258.495667,268.875244 256.608826,262.239166 
	C255.329437,257.739471 253.204315,254.194946 242.424011,255.000000 
z"/>
<path fill="#3E606F" opacity="1.000000" stroke="none" 
	d="
M109.157204,72.037537 
	C110.444855,71.691696 111.728897,71.063179 113.020760,71.046646 
	C120.484528,70.951103 127.950150,71.000023 135.705902,71.000023 
	C135.705902,118.682152 135.705902,166.045303 135.705902,213.828796 
	C127.284050,213.828796 118.860664,213.828796 110.210793,212.992645 
	C109.989532,167.036102 110.003349,121.915703 109.964478,76.795349 
	C109.963112,75.209175 109.438133,73.623466 109.157204,72.037537 
z"/>
<path fill="#2B5580" opacity="1.000000" stroke="none" 
	d="
M109.088882,72.499168 
	C109.438133,73.623466 109.963112,75.209175 109.964478,76.795349 
	C110.003349,121.915703 109.989532,167.036102 109.970810,212.631866 
	C109.638214,211.587982 109.041756,210.068954 109.040314,208.549377 
	C108.997536,163.353226 109.013718,118.157005 109.088882,72.499168 
z"/>
<path fill="#FFFFFF" opacity="1.000000" stroke="none" 
	d="
M201.353333,73.038254 
	C209.710907,71.145493 217.351639,72.083595 224.760101,75.342201 
	C236.984085,80.718887 245.317932,90.098854 249.832077,102.269485 
	C257.634827,123.306503 257.583771,144.825439 249.809280,165.830032 
	C244.761108,179.468765 234.137726,187.930862 217.163040,189.110275 
	C195.851181,190.591049 183.845169,176.493683 177.215439,161.097458 
	C171.461792,147.735794 168.993805,133.376389 170.120560,118.809036 
	C171.250656,104.198120 173.767807,89.683754 186.614258,80.109085 
	C190.805298,76.985443 196.121201,75.371040 201.353333,73.038254 
z"/>
<path fill="#FFFFFF" opacity="1.000000" stroke="none" 
	d="
M242.902481,254.999939 
	C253.204315,254.194946 255.329437,257.739471 256.608826,262.239166 
	C258.495667,268.875244 253.525269,275.654663 247.019470,275.088409 
	C241.941177,274.646423 236.793671,274.999908 231.341583,274.999908 
	C231.341583,268.345642 231.341583,262.109161 231.341583,255.000000 
	C234.959549,255.000000 238.691772,255.000000 242.902481,254.999939 
z"/>
</svg>